# AST/ASF file generated using VICON BodyLanguage
# -----------------------------------------------
:version 1.10
:name VICON
:units
  mass 1.0
  length 0.45
  angle deg
:documentation
   .ast/.asf automatically generated from VICON data using
   VICON BodyBuilder and BodyLanguage model FoxedUp or BRILLIANT.MOD
:root
   order TX TY TZ RX RY RZ
   axis XYZ
   position 0 0 0  
   orientation 0 0 0 
:bonedata
  begin
     id 1 
     name lhipjoint
     direction 0.521452 -0.77106 0.36545 
     length 2.0933 
     axis 0 0 0  XYZ
  end
  begin
     id 2 
     name lfemur
     direction 0.34202 -0.939693 0  
     length 6.83441  
     axis 0 0 20  XYZ
    dof rx ry rz
    limits (-160.0 20.0)
           (-70.0 70.0)
           (-60.0 70.0)
  end
  begin
     id 3 
     name ltibia
     direction 0.34202 -0.939693 0   
     length 7.28749   
     axis 0 0 20   XYZ
    dof rx
    limits (-10.0 170.0)
  end
  begin
     id 4 
     name lfoot
     direction 0.100608 -0.276418 0.955757   
     length 1.52195   
     axis -90 7.62852e-016 20   XYZ
    dof rx rz
    limits (-45.0 90.0)
           (-70.0 20.0)
  end
  begin
     id 5 
     name ltoes
     direction 1.53558e-011 -4.21907e-011 1   
     length 0.770459   
     axis -90 7.62852e-016 20   XYZ
    dof rx
    limits (-90.0 20.0)
  end
  begin
     id 6 
     name rhipjoint
     direction -0.488071 -0.788702 0.373812   
     length 2.04648  
     axis 0 0 0  XYZ 
  end
  begin
     id 7 
     name rfemur
     direction -0.34202 -0.939693 0   
     length 6.92583   
     axis 0 0 -20   XYZ
    dof rx ry rz
    limits (-160.0 20.0)
           (-70.0 70.0)
           (-70.0 60.0)
  end
  begin
     id 8 
     name rtibia
     direction -0.34202 -0.939693 0   
     length 7.41043   
     axis 0 0 -20   XYZ
    dof rx
    limits (-10.0 170.0)
 end
 begin
     id 9 
     name rfoot
     direction -0.0784433 -0.215521 0.973343   
     length 1.67708  
     axis -90 -7.62852e-016 -20   XYZ
    dof rx rz
    limits (-45.0 90.0)
           (-20.0 70.0)
  end
  begin
     id 10 
     name rtoes
     direction -1.53551e-011 -4.21842e-011 1   
     length 0.849787   
     axis -90 -7.62852e-016 -20   XYZ
    dof rx
    limits (-90.0 20.0)
  end
  begin
     id 11 
     name lowerback
     direction -0.0122332 0.997575 -0.0685192   
     length 1.98724   
     axis 0 0 0   XYZ
    dof rx ry rz
    limits (-20.0 45.0)
           (-30.0 30.0)
           (-30.0 30.0)
  end
  begin
     id 12 
     name upperback
     direction 0.0182347 0.999724 -0.0148421   
     length 1.99029   
     axis 0 0 0   XYZ
    dof rx ry rz
    limits (-20.0 45.0)
           (-30.0 30.0)
           (-30.0 30.0)
  end
  begin
     id 13 
     name thorax
     direction 0.0242908 0.99956 0.0170184   
     length 1.99573   
     axis 0 0 0   XYZ
    dof rx ry rz
    limits (-20.0 45.0)
           (-30.0 30.0)
           (-30.0 30.0)
  end
  begin
     id 14 
     name lowerneck
     direction 0.0654488 0.985533 0.156338   
     length 1.4285   
     axis 0 0 0   XYZ
    dof rx ry rz
    limits (-20.0 45.0)
           (-30.0 30.0)
           (-30.0 30.0)
  end
  begin
     id 15 
     name upperneck
     direction -0.02953 0.998556 -0.0448842   
     length 1.44709   
     axis 0 0 0   XYZ
    dof rx ry rz
    limits (-20.0 45.0)
           (-30.0 30.0)
           (-30.0 30.0)
  end
  begin
     id 16
     name head
     direction -0.0155588 0.999386 -0.0314063  
     length 1.44689  
     axis 0 0 0   XYZ
    dof rx ry rz
    limits (-20.0 45.0)
           (-30.0 30.0)
           (-30.0 30.0)
  end
  begin
     id 17 
     name lclavicle
     direction 0.968229 0.236071 -0.0824755  
     length 3.60593  
     axis 0 0 0   XYZ
    dof ry rz
    limits (-20.0 10.0)
           (0.0 20.0)
  end
  begin
     id 18 
     name lhumerus
     direction 1 -4.48968e-011 7.8138e-029   
     length 5.06035   
     axis 180 -30 -90   XYZ
    dof rx ry rz
    limits (-60.0 90.0)
           (-90.0 90.0)
           (-90.0 90.0)
  end
  begin
     id 19
     name lradius
     direction 1 -4.48967e-011 9.02887e-028   
     length 3.1478   
     axis 180 -30 -90   XYZ
    dof rx
    limits (-10.0 170.0)
  end
  begin
     id 20
     name lwrist
     direction 1 -4.48961e-011 7.20928e-028   
     length 1.5739   
     axis -5.52449e-016 90 90   XYZ
    dof ry
    limits (-180.0 0.0)
 end
  begin
     id 21 
     name lhand
     direction 1 -4.48972e-011 1.44186e-027   
     length 0.606747   
     axis -9.20027e-016 90 90   XYZ
    dof rx rz
    limits (-90.0 90.0)
           (-45.0 45.0)
  end
  begin
     id 22 
     name lfingers
     direction 1 -4.48943e-011 2.88371e-027   
     length 0.489175   
     axis -1.84005e-015 90 90   XYZ
    dof rx
    limits (0.0 90.0)
  end
  begin
     id 23
     name lthumb
     direction 0.707107 -6.34917e-011 0.707107   
     length 0.70236   
     axis -90 45 2.85299e-015   XYZ
    dof rx rz
    limits (-45.0 45.0)
           (-45.0 45.0)
  end
  begin
     id 24 
     name rclavicle
     direction -0.978165 0.207816 0.0022268   
     length 3.35425  
     axis 0 0 0   XYZ 
    dof ry rz
    limits (-10.0 20.0)
           (-20.0 0.0)
  end
  begin
     id 25 
     name rhumerus
     direction -1 -4.48964e-011 -4.02159e-027  
     length 5.12273   
     axis 180 30 90   XYZ
    dof rx ry rz
    limits (-90.0 60.0)
           (-90.0 90.0)
           (-90.0 90.0)
  end
  begin
     id 26 
     name rradius
     direction -1 -4.48966e-011 1.62746e-027   
     length 3.422   
     axis 180 30 90   XYZ
    dof rx
    limits (-10.0 170.0)
  end
  begin
     id 27 
     name rwrist
     direction -1 -4.4896e-011 7.20928e-028   
     length 1.711   
     axis -5.52449e-016 -90 -90   XYZ
    dof ry
    limits (-180.0 0.0)
  end
  begin
     id 28
     name rhand
     direction -1 -4.48979e-011 1.44186e-027   
     length 0.704599   
     axis -9.20027e-016 -90 -90   XYZ
    dof rx rz
    limits (-90.0 90.0)
           (-45.0 45.0)
  end
  begin
     id 29
     name rfingers
     direction -1 -4.48962e-011 2.88371e-027   
     length 0.568066   
     axis -1.84005e-015 -90 -90   XYZ
    dof rx
    limits (0.0 90.0)
  end
  begin
     id 30
     name rthumb
     direction -0.707107 -6.34949e-011 0.707107   
     length 0.815633   
     axis -90 -45 -2.85299e-015   XYZ
    dof rx rz
    limits (-45.0 45.0)
           (-45.0 45.0)
  end
:hierarchy
  begin
    root lhipjoint rhipjoint lowerback
    lhipjoint lfemur
    lfemur ltibia
    ltibia lfoot
    lfoot ltoes
    rhipjoint rfemur
    rfemur rtibia
    rtibia rfoot
    rfoot rtoes
    lowerback upperback
    upperback thorax
    thorax lowerneck lclavicle rclavicle
    lowerneck upperneck
    upperneck head
    lclavicle lhumerus
    lhumerus lradius
    lradius lwrist
    lwrist lhand lthumb
    lhand lfingers
    rclavicle rhumerus
    rhumerus rradius
    rradius rwrist
    rwrist rhand rthumb
    rhand rfingers
  end

#!OML:ASF E:\id_vita\Project 1\Capture day 1\Session 1\Male1.ASF
:FULLY-SPECIFIED
:DEGREES
318
root 12.2836 16.2834 0.143183 -160.791 87.1553 -165.47
lowerback -1.91287 -1.28884 -3.30642
upperback 3.35839 -1.57285 0.50234
thorax 4.64912 -0.894688 2.2791
lowerneck -8.05179 -0.243031 8.7783
upperneck 23.2542 -1.18591 -0.511949
head 8.52719 0.351674 -1.73517
rclavicle 7.7526e-015 2.5842e-015
rhumerus -29.2098 -2.57367 -87.0996
rradius 23.5219
rwrist 5.87095
rhand -19.3088 33.8512
rfingers 7.12502
rthumb 7.0071 3.98714
lclavicle 7.7526e-015 2.5842e-015
lhumerus -29.4557 43.1067 70.7239
lradius 7.65828
lwrist -29.8457
lhand -15.1748 46.7799
lfingers 7.12502
lthumb 10.9962 76.4718
rfemur -12.5924 2.83068 25.2939
rtibia 27.0734
rfoot -15.3186 -9.9298
rtoes -1.18555
lfemur -20.8588 2.66504 -18.593
ltibia 62.0215
lfoot -13.1987 -9.75082
ltoes 15.3086
319
root 12.4188 16.2574 0.14784 -159.422 87.1188 -164.124
lowerback -2.3465 -1.17989 -3.2526
upperback 3.63539 -1.40483 0.458536
thorax 5.17277 -0.818187 2.20305
lowerneck -8.2586 -0.332114 8.7727
upperneck 22.9783 -1.355 -0.458284
head 8.46362 0.26115 -1.73146
rclavicle 8.89561e-015 -5.76476e-015
rhumerus -28.7064 -2.02599 -87.3534
rradius 24.5921
rwrist 5.06852
rhand -19.4678 31.776
rfingers 7.12502
rthumb 6.85361 1.90695
lclavicle 8.89561e-015 -5.76476e-015
lhumerus -29.475 42.5469 70.4652
lradius 7.12895
lwrist -28.6869
lhand -15.1072 47.803
lfingers 7.12502
lthumb 11.0614 77.4916
rfemur -12.2407 2.93278 25.4497
rtibia 27.4369
rfoot -15.9772 -10.2776
rtoes -0.588368
lfemur -22.1938 2.7831 -18.6132
ltibia 61.3628
lfoot -14.8003 -9.74366
ltoes 13.601
320
root 12.5607 16.2319 0.15174 -156.889 87.1829 -161.484
lowerback -1.84307 -1.1205 -3.10284
upperback 3.3236 -1.35544 0.402566
thorax 4.54992 -0.775722 2.07685
lowerneck -8.07418 -0.325067 8.52251
upperneck 23.1805 -1.3256 -0.210016
head 8.50396 0.291911 -1.60302
rclavicle 2.10712e-014 0
rhumerus -29.1962 -1.26125 -87.6576
rradius 25.6947
rwrist 4.45702
rhand -19.8975 31.2526
rfingers 7.12502
rthumb 6.43873 1.37046
lclavicle 2.10712e-014 0
lhumerus -31.214 41.8477 68.9415
lradius 6.9566
lwrist -27.6553
lhand -15.1875 48.2765
lfingers 7.12502
lthumb 10.9839 77.9691
rfemur -11.6458 3.06601 25.6635
rtibia 27.7214
rfoot -16.4542 -10.7155
rtoes -0.641097
lfemur -23.3022 2.96585 -18.5953
ltibia 60.5406
lfoot -16.4403 -9.68466
ltoes 11.4617
321
root 12.7032 16.2112 0.152262 -152.106 87.1368 -156.609
lowerback -1.9443 -0.98279 -2.71799
upperback 3.47379 -1.17702 0.335974
thorax 4.74219 -0.675279 1.80004
lowerneck -8.04691 -0.268289 8.62401
upperneck 22.9333 -1.2402 -0.318587
head 8.41701 0.317289 -1.64698
rclavicle -1.19768e-014 1.63003e-014
rhumerus -28.798 -0.628239 -87.9363
rradius 26.5848
rwrist 3.58888
rhand -20.2383 31.6344
rfingers 7.12502
rthumb 6.10971 1.7425
lclavicle -1.19768e-014 1.63003e-014
lhumerus -31.6994 41.1148 68.2747
lradius 6.67049
lwrist -26.7646
lhand -15.3626 48.6606
lfingers 7.12502
lthumb 10.815 78.3621
rfemur -10.983 3.07289 26.0102
rtibia 27.8783
rfoot -17.0373 -10.8483
rtoes 0.302324
lfemur -24.3809 3.11797 -18.4417
ltibia 59.5308
lfoot -17.6825 -9.56074
ltoes 9.63335
322
root 12.84 16.1927 0.153579 -149.254 86.965 -153.767
lowerback -1.96312 -0.905518 -2.41747
upperback 3.5251 -1.08182 0.272376
thorax 4.79304 -0.61641 1.57106
lowerneck -8.02556 -0.294955 8.90302
upperneck 22.7541 -1.2534 -0.644009
head 8.34629 0.293014 -1.80303
rclavicle 7.45443e-016 -2.78299e-015
rhumerus -28.5256 0.311072 -88.2699
rradius 27.587
rwrist 2.48801
rhand -20.2873 32.5788
rfingers 7.12502
rthumb 6.06241 2.6855
lclavicle 7.45443e-016 -2.78299e-015
lhumerus -32.3458 40.3716 67.4973
lradius 6.4943
lwrist -25.8286
lhand -15.3286 49.1179
lfingers 7.12502
lthumb 10.8478 78.8177
rfemur -10.3751 3.00008 26.3039
rtibia 27.8669
rfoot -17.7945 -10.8341
rtoes 1.50574
lfemur -25.5766 3.17798 -18.3526
ltibia 58.3052
lfoot -18.5575 -9.47853
ltoes 9.1203
323
root 12.9763 16.1776 0.155121 -149.84 87.0328 -154.412
lowerback -1.80126 -0.7465 -2.39481
upperback 3.41091 -0.872372 0.154337
thorax 4.56918 -0.506226 1.45205
lowerneck -8.12709 -0.444533 8.83129
upperneck 22.8244 -1.48294 -0.532195
head 8.37887 0.194379 -1.77558
rclavicle 2.28602e-014 -5.56597e-015
rhumerus -28.3776 0.663413 -88.3761
rradius 28.3542
rwrist 1.7232
rhand -20.4289 32.125
rfingers 7.12502
rthumb 5.92577 2.22785
lclavicle 2.28602e-014 -5.56597e-015
lhumerus -33.0811 39.4942 66.7735
lradius 6.20548
lwrist -24.9603
lhand -15.2565 49.3641
lfingers 7.12502
lthumb 10.9173 79.0603
rfemur -9.73963 3.03603 26.2989
rtibia 27.6181
rfoot -18.3198 -11.1643
rtoes -0.329942
lfemur -26.7018 3.30533 -18.5726
ltibia 56.8467
lfoot -19.8477 -9.3039
ltoes 8.57439
324
root 13.1182 16.1691 0.154338 -147.111 87.0742 -151.63
lowerback -1.59737 -0.54032 -2.09394
upperback 3.39675 -0.608582 0.0360726
thorax 4.42088 -0.360384 1.17852
lowerneck -8.51799 -0.527074 8.59056
upperneck 22.9858 -1.68814 -0.144647
head 8.50355 0.124075 -1.62778
rclavicle 7.95139e-016 7.15625e-015
rhumerus -28.0635 0.623117 -88.4268
rradius 28.9997
rwrist 1.14116
rhand -20.2573 31.9303
rfingers 7.12502
rthumb 6.09137 2.03788
lclavicle 7.95139e-016 7.15625e-015
lhumerus -33.4076 38.6424 66.2697
lradius 5.67401
lwrist -24.3604
lhand -15.3664 49.4176
lfingers 7.12502
lthumb 10.8113 79.1193
rfemur -8.86376 3.1689 26.4828
rtibia 27.1367
rfoot -18.5134 -11.4958
rtoes -2.24701
lfemur -27.5286 3.4388 -18.585
ltibia 55.1657
lfoot -20.6001 -9.22364
ltoes 10.1145
325
root 13.266 16.1691 0.151622 -139.973 86.9555 -144.38
lowerback -1.555 -0.463084 -1.64607
upperback 3.49143 -0.522674 0.0892541
thorax 4.4873 -0.303622 0.987132
lowerneck -8.75682 -0.464224 8.54825
upperneck 23.0292 -1.59974 -0.265375
head 8.56429 0.149484 -1.65545
rclavicle 5.96354e-016 -8.34896e-015
rhumerus -27.8206 1.34752 -88.5668
rradius 30.0343
rwrist 0.324626
rhand -20.2609 31.4848
rfingers 7.12502
rthumb 6.08791 1.59231
lclavicle 5.96354e-016 -8.34896e-015
lhumerus -33.9942 38.1893 65.6229
lradius 5.34858
lwrist -23.8852
lhand -15.4691 49.4789
lfingers 7.12502
lthumb 10.7123 79.1857
rfemur -7.79419 3.3722 26.9614
rtibia 26.4508
rfoot -18.2828 -11.5742
rtoes -1.5671
lfemur -28.1843 3.55432 -18.2766
ltibia 53.2637
lfoot -21.2443 -9.15526
ltoes 9.90416
326
root 13.4127 16.1711 0.150092 -135.866 86.9078 -140.296
lowerback -1.56381 -0.37831 -1.45925
upperback 3.45601 -0.418735 0.116832
thorax 4.45057 -0.245898 0.916645
lowerneck -8.72842 -0.440035 8.62109
upperneck 23.06 -1.51825 -0.51913
head 8.56844 0.169538 -1.74575
rclavicle -3.57812e-015 1.98785e-015
rhumerus -27.8412 2.04618 -88.6508
rradius 31.1487
rwrist -0.335581
rhand -20.7131 31.5467
rfingers 7.12502
rthumb 5.6514 1.64203
lclavicle -3.57812e-015 1.98785e-015
lhumerus -34.8454 37.6121 64.8922
lradius 5.19175
lwrist -23.4606
lhand -15.5602 49.6258
lfingers 7.12502
lthumb 10.6244 79.3372
rfemur -6.77708 3.55856 27.23
rtibia 25.5643
rfoot -17.9118 -11.7121
rtoes -1.22472
lfemur -28.9097 3.6076 -18.1576
ltibia 51.142
lfoot -21.5471 -9.15135
ltoes 9.30972
327
root 13.5557 16.1701 0.149461 -133.812 86.9328 -138.346
lowerback -1.60009 -0.222871 -1.30571
upperback 3.40059 -0.213841 0.0102537
thorax 4.40635 -0.136633 0.731721
lowerneck -8.72148 -0.468064 8.63608
upperneck 23.0473 -1.57067 -0.453341
head 8.56153 0.153589 -1.73062
rclavicle 7.25564e-015 -8.74653e-015
rhumerus -27.7705 2.28927 -88.7402
rradius 32.0012
rwrist -0.81788
rhand -21.0576 31.7415
rfingers 7.12502
rthumb 5.31872 1.82828
lclavicle 7.25564e-015 -8.74653e-015
lhumerus -35.3999 36.8058 64.2767
lradius 4.95097
lwrist -23.1584
lhand -15.7252 49.7941
lfingers 7.12502
lthumb 10.4652 79.5137
rfemur -5.79344 3.55987 27.3258
rtibia 24.519
rfoot -17.703 -11.7401
rtoes -2.77536
lfemur -29.6328 3.53624 -18.1803
ltibia 48.8222
lfoot -21.7013 -9.05882
ltoes 8.87978
328
root 13.7018 16.1774 0.144464 -132.804 87.0149 -137.433
lowerback -1.61597 -0.152132 -1.20453
upperback 3.29082 -0.121726 -0.102172
thorax 4.29822 -0.0851456 0.564098
lowerneck -8.7443 -0.490412 8.51271
upperneck 23.1837 -1.61432 -0.29094
head 8.61348 0.147065 -1.66026
rclavicle 5.1684e-015 2.38542e-015
rhumerus -27.7614 2.7331 -88.8766
rradius 32.8092
rwrist -1.35826
rhand -20.6883 31.1852
rfingers 7.12502
rthumb 5.67532 1.28116
lclavicle 5.1684e-015 2.38542e-015
lhumerus -36.1712 36.1849 63.4787
lradius 4.74351
lwrist -22.9334
lhand -15.921 49.9198
lfingers 7.12502
lthumb 10.2763 79.6487
rfemur -4.72967 3.35022 27.2797
rtibia 23.3666
rfoot -18.3528 -11.5037
rtoes -5.04779
lfemur -30.2726 3.38621 -18.2996
ltibia 46.3436
lfoot -21.9767 -8.93309
ltoes 9.24209
329
root 13.8516 16.1923 0.136829 -132.458 87.1168 -137.244
lowerback -1.64751 -0.124432 -1.19195
upperback 3.11772 -0.0873059 -0.166627
thorax 4.13527 -0.0663867 0.492501
lowerneck -8.79133 -0.528301 8.28221
upperneck 23.4688 -1.65479 -0.160401
head 8.72057 0.136783 -1.58363
rclavicle 1.49089e-015 7.95139e-016
rhumerus -27.8072 3.18724 -88.9379
rradius 33.6016
rwrist -1.7061
rhand -20.2735 30.8316
rfingers 7.12502
rthumb 6.07575 0.938763
lclavicle 1.49089e-015 7.95139e-016
lhumerus -37.3451 35.5853 62.5625
lradius 4.9178
lwrist -22.7567
lhand -15.9622 50.0608
lfingers 7.12502
lthumb 10.2366 79.7917
rfemur -3.68294 3.11675 27.1505
rtibia 22.1048
rfoot -18.2467 -10.9529
rtoes -4.74396
lfemur -30.9108 3.18763 -18.4526
ltibia 43.7556
lfoot -22.1578 -8.67834
ltoes 10.1913
330
root 14.0016 16.201 0.129777 -127.958 87.109 -132.886
lowerback -1.89745 -0.0231409 -0.968502
upperback 3.17468 0.0425744 -0.154278
thorax 4.33392 0.0040261 0.386938
lowerneck -8.96409 -0.523901 8.30989
upperneck 23.5415 -1.63428 -0.343256
head 8.77496 0.131843 -1.65036
rclavicle -2.88238e-015 -1.43125e-014
rhumerus -27.3483 3.64721 -88.8854
rradius 34.1434
rwrist -2.11244
rhand -20.6129 31.4715
rfingers 7.12502
rthumb 5.74809 1.5695
lclavicle -2.88238e-015 -1.43125e-014
lhumerus -38.0583 35.0601 62.0481
lradius 5.16953
lwrist -22.615
lhand -15.9121 50.1166
lfingers 7.12502
lthumb 10.285 79.8451
rfemur -2.58536 2.9578 27.2535
rtibia 20.6777
rfoot -18.0426 -10.2931
rtoes -0.234236
lfemur -31.4626 2.939 -18.3102
ltibia 41.1158
lfoot -22.0663 -7.90758
ltoes 9.40583
331
root 14.1494 16.2053 0.124972 -123.483 87.0314 -128.481
lowerback -2.16184 -0.011946 -0.826563
upperback 3.31617 0.0509463 -0.0120203
thorax 4.63138 0.00922811 0.454952
lowerneck -8.9849 -0.40592 8.18154
upperneck 23.4635 -1.41232 -0.527666
head 8.75871 0.199433 -1.66987
rclavicle 4.77083e-015 -7.95139e-016
rhumerus -26.7809 4.45182 -88.7096
rradius 34.7128
rwrist -2.61226
rhand -21.0832 32.2625
rfingers 7.12502
rthumb 5.294 2.34862
lclavicle 4.77083e-015 -7.95139e-016
lhumerus -38.4779 35.0136 61.8032
lradius 4.98371
lwrist -22.5045
lhand -16.1153 50.1397
lfingers 7.12502
lthumb 10.0889 79.8778
rfemur -1.32431 2.9189 27.4463
rtibia 19.0911
rfoot -17.8054 -9.86489
rtoes -2.52115
lfemur -31.9345 2.59557 -18.0669
ltibia 38.4665
lfoot -21.9427 -6.92678
ltoes 7.93123
332
root 14.2988 16.2096 0.122929 -121.081 87.0814 -126.164
lowerback -2.27135 -0.126103 -1.02098
upperback 3.2671 -0.102533 0.200578
thorax 4.64592 -0.0785271 0.773854
lowerneck -8.69488 -0.22496 7.7132
upperneck 23.536 -1.00968 -0.664762
head 8.74488 0.336784 -1.59765
rclavicle -5.66536e-015 -5.96354e-015
rhumerus -26.6135 5.46835 -88.4995
rradius 35.4374
rwrist -2.8383
rhand -21.2005 32.7542
rfingers 7.12502
rthumb 5.18078 2.83757
lclavicle -5.66536e-015 -5.96354e-015
lhumerus -39.4687 35.201 61.2878
lradius 4.78711
lwrist -22.399
lhand -16.4636 50.411
lfingers 7.12502
lthumb 9.75287 80.1652
rfemur -0.00913336 3.06036 27.479
rtibia 17.4
rfoot -17.2587 -9.63881
rtoes -2.0791
lfemur -32.3631 2.15632 -17.9325
ltibia 35.8374
lfoot -21.7345 -5.86539
ltoes 7.4317
